<?xml version="1.0" encoding="utf-8"?>
<!-- Generator: Adobe Illustrator 26.2.1, SVG Export Plug-In . SVG Version: 6.00 Build 0)  -->
<svg version="1.1" id="Layer_1" xmlns="http://www.w3.org/2000/svg" xmlns:xlink="http://www.w3.org/1999/xlink" x="0px" y="0px"
	 viewBox="0 0 126 126" style="enable-background:new 0 0 126 126;" xml:space="preserve">
<style type="text/css">
	.st0{fill:#141414;}
	.st1{fill:#FFFFFF;}
</style>
<ellipse transform="matrix(0.999 -4.462089e-02 4.462089e-02 0.999 -2.7484 2.8739)" class="st0" cx="63" cy="63" rx="61.3" ry="61.3"/>
<g>
	<path class="st1" d="M69.1,86.6v12H31.5v-12h9.1V39.4h-9.1v-12h37.6c8.7,0,15.5,2.1,20.3,6.2c4.8,4.1,7.2,9.6,7.2,16.6
		c0,4-0.8,7.6-2.5,10.8c-1.7,3.2-3.8,5.7-6.4,7.4c-2.6,1.7-5.6,2.9-9,3.5c-3.4,0.6-7.6,0.9-12.6,0.9h-6.8v13.8H69.1z M59.1,60.9h2.8
		c6.4,0,10.4-1,12.3-3.1s2.7-4.6,2.7-7.7c0-2.6-0.6-4.8-1.9-6.6c-1.3-1.8-2.7-3-4.4-3.4c-1.6-0.4-4.3-0.6-8-0.6h-3.5V60.9z"/>
</g>
</svg>
