<?xml version="1.0" encoding="utf-8"?>
<!-- Generator: Adobe Illustrator 26.2.1, SVG Export Plug-In . SVG Version: 6.00 Build 0)  -->
<svg version="1.1" id="Layer_1" xmlns="http://www.w3.org/2000/svg" xmlns:xlink="http://www.w3.org/1999/xlink" x="0px" y="0px"
	 viewBox="0 0 16 16.7" style="enable-background:new 0 0 16 16.7;" xml:space="preserve">
<style type="text/css">
	.st0{fill:#E22028;}
</style>
<g>
	<g>
		<rect x="5.7" y="1.8" class="st0" width="4.8" height="1"/>
	</g>
	<g>
		<polygon class="st0" points="15.7,15.3 14.7,15.3 14.7,14.9 14.9,2.8 12.9,2.8 12.9,1.8 15.9,1.8 		"/>
	</g>
	<g>
		<polygon class="st0" points="1.1,15.3 0.1,15.3 0.1,14.9 0.3,1.8 3.2,1.8 3.2,2.8 1.2,2.8 		"/>
	</g>
	<g>
		<rect x="1.5" y="15.6" class="st0" width="12.9" height="1"/>
	</g>
	<g>
		<rect x="0.8" y="6.1" class="st0" width="14.6" height="1"/>
	</g>
	<g>
		<g>
			<rect x="3" y="8.8" class="st0" width="1.5" height="1.5"/>
		</g>
		<g>
			<rect x="7.3" y="8.8" class="st0" width="1.5" height="1.5"/>
		</g>
		<g>
			<rect x="11.5" y="8.8" class="st0" width="1.5" height="1.5"/>
		</g>
		<g>
			<rect x="3" y="12.7" class="st0" width="1.5" height="1.5"/>
		</g>
		<g>
			<rect x="7.3" y="12.7" class="st0" width="1.5" height="1.5"/>
		</g>
		<g>
			<rect x="11.5" y="12.7" class="st0" width="1.5" height="1.5"/>
		</g>
	</g>
	<g>
		<path class="st0" d="M1.6,16.6c-0.1,0-0.2,0-0.2,0c-0.6-0.1-1.1-0.6-1.3-1.2c0-0.1,0-0.2,0-0.3s0-0.2,0-0.3l1,0.2v0.1v0.1
			c0,0.2,0.2,0.4,0.4,0.4l0.3,1C1.8,16.6,1.7,16.6,1.6,16.6z"/>
	</g>
	<g>
		<path class="st0" d="M14.2,16.6c-0.1,0-0.2,0-0.2,0l0.2-1h0.1c0.3,0,0.5-0.2,0.5-0.4v-0.1V15l1-0.2c0,0.1,0,0.2,0,0.3s0,0.2,0,0.3
			c-0.1,0.6-0.6,1.1-1.3,1.2C14.4,16.6,14.3,16.6,14.2,16.6z"/>
	</g>
	<g>
		<path class="st0" d="M4.4,5.4c-1,0-1.7-0.8-1.7-1.7V1.8c0-1,0.8-1.7,1.7-1.7s1.7,0.8,1.7,1.7v1.8C6.2,4.6,5.4,5.4,4.4,5.4z
			 M4.4,1.1C4,1.1,3.7,1.4,3.7,1.8v1.8C3.7,4,4,4.3,4.4,4.3s0.8-0.2,0.8-0.7V1.8C5.2,1.4,4.8,1.1,4.4,1.1z"/>
	</g>
	<g>
		<path class="st0" d="M11.7,5.4c-1,0-1.7-0.8-1.7-1.7V1.8c0-1,0.8-1.7,1.7-1.7s1.7,0.8,1.7,1.7v1.8C13.4,4.6,12.7,5.4,11.7,5.4z
			 M11.7,1.1c-0.4,0-0.7,0.3-0.7,0.7v1.8c0,0.4,0.3,0.7,0.7,0.7s0.7-0.3,0.7-0.7V1.8C12.4,1.4,12.1,1.1,11.7,1.1z"/>
	</g>
</g>
</svg>
