<?xml version="1.0" encoding="utf-8"?>
<!-- Generator: Adobe Illustrator 26.2.1, SVG Export Plug-In . SVG Version: 6.00 Build 0)  -->
<svg version="1.1" id="Capa_1" xmlns="http://www.w3.org/2000/svg" xmlns:xlink="http://www.w3.org/1999/xlink" x="0px" y="0px"
	 viewBox="0 0 200 199" style="enable-background:new 0 0 200 199;" xml:space="preserve">
<style type="text/css">
	.st0{fill:#141414;}
	.st1{fill:#FFFFFF;}
	.st2{fill:none;}
</style>
<g>
	
		<ellipse transform="matrix(0.999 -4.462089e-02 4.462089e-02 0.999 -4.3402 4.5612)" class="st0" cx="100" cy="99.5" rx="90.5" ry="90.5"/>
	<path class="st0" d="M99.4,6h1.3V1.4h-1.3V6z M99.4,197.6h1.3V193h-1.3V197.6z M6.5,98.9H1.9v1.3h4.6V98.9z M193.5,98.9v1.3h4.6
		v-1.3H193.5z M166.6,33.8l3.2-3.2l-0.9-0.9l-3.2,3.2L166.6,33.8z M33.4,165.2l-3.2,3.2l0.9,0.9l3.2-3.2L33.4,165.2z M34.3,32.9
		l-3.2-3.2l-0.9,0.9l3.2,3.2L34.3,32.9z M165.7,166.1l3.2,3.2l0.9-0.9l-3.2-3.2L165.7,166.1z M64.8,12.8L63,8.6l-1.2,0.5l1.7,4.2
		L64.8,12.8z M135.2,186.2l1.7,4.2l1.2-0.5l-1.7-4.2L135.2,186.2z M13.3,134.7l-4.2,1.7l0.5,1.2l4.2-1.7L13.3,134.7z M186.7,64.3
		l4.2-1.7l-0.5-1.2l-4.2,1.7L186.7,64.3z M136.4,13.3l1.7-4.2L137,8.6l-1.7,4.2L136.4,13.3z M63.6,185.7l-1.7,4.2l1.2,0.5l1.7-4.2
		L63.6,185.7z M13.8,63.1l-4.2-1.7l-0.5,1.2l4.2,1.7L13.8,63.1z M186.2,135.9l4.2,1.7l0.5-1.2l-4.2-1.7L186.2,135.9z M82.4,7.6
		l-0.9-4.5l-1.2,0.2l0.9,4.5L82.4,7.6z M117.6,191.4l0.9,4.5l1.2-0.2l-0.9-4.5L117.6,191.4z M8.1,117.1L3.7,118l0.2,1.2l4.5-0.9
		L8.1,117.1z M191.9,81.9l4.5-0.9l-0.2-1.2l-4.5,0.9L191.9,81.9z M152.5,22.1l2.5-3.8l-1.1-0.7l-2.5,3.8L152.5,22.1z M47.5,176.9
		l-2.5,3.8l1.1,0.7l2.5-3.8L47.5,176.9z M22.6,47l-3.8-2.5l-0.7,1.1l3.8,2.5L22.6,47z M177.4,152l3.8,2.5l0.7-1.1l-3.8-2.5
		L177.4,152z M48.6,21.4L46,17.6L45,18.3l2.5,3.8L48.6,21.4z M151.4,177.6l2.5,3.8l1.1-0.7l-2.5-3.8L151.4,177.6z M21.9,150.9
		l-3.8,2.5l0.7,1.1l3.8-2.5L21.9,150.9z M178.1,48.1l3.8-2.5l-0.7-1.1l-3.8,2.5L178.1,48.1z M117.6,7.6l1.2,0.2l0.9-4.5l-1.2-0.2
		L117.6,7.6z M80.2,195.6l1.2,0.2l0.9-4.5l-1.2-0.3L80.2,195.6z M8.4,80.6l-4.5-0.9L3.7,81l4.5,0.9L8.4,80.6z M191.6,118.4l4.5,0.9
		l0.2-1.2l-4.5-0.9L191.6,118.4z M91.5,6.3L91,1.8l-1.3,0.1l0.4,4.5L91.5,6.3z M108.5,192.7l0.4,4.5l1.3-0.1l-0.4-4.5L108.5,192.7z
		 M6.8,108l-4.5,0.4l0.1,1.3l4.5-0.4L6.8,108z M193.2,91l4.5-0.4l-0.1-1.3l-4.5,0.4L193.2,91z M159.8,27.6l2.9-3.5l-1-0.8l-2.9,3.5
		L159.8,27.6z M40.2,171.4l-2.9,3.5l1,0.8l2.9-3.5L40.2,171.4z M28.1,39.7l-3.5-2.9l-0.8,1l3.5,2.9L28.1,39.7z M171.9,159.3l3.5,2.9
		l0.8-1l-3.5-2.9L171.9,159.3z M56.5,16.7l-2.2-4l-1.1,0.6l2.2,4L56.5,16.7z M143.5,182.3l2.2,4l1.1-0.6l-2.2-4L143.5,182.3z
		 M17.2,143l-4,2.2l0.6,1.1l4-2.2L17.2,143z M182.8,56l4-2.2l-0.6-1.1l-4,2.2L182.8,56z M127.8,10.2l1.3-4.4l-1.2-0.4l-1.3,4.4
		L127.8,10.2z M72.2,188.8l-1.3,4.4l1.2,0.4l1.3-4.4L72.2,188.8z M10.7,71.7l-4.4-1.3l-0.4,1.2l4.4,1.3L10.7,71.7z M189.3,127.3
		l4.4,1.3l0.4-1.2l-4.4-1.3L189.3,127.3z M73.5,9.8l-1.3-4.4l-1.2,0.4l1.3,4.4L73.5,9.8z M126.5,189.2l1.3,4.4l1.2-0.4l-1.3-4.4
		L126.5,189.2z M10.3,126l-4.4,1.3l0.4,1.2l4.4-1.3L10.3,126z M189.7,72.9l4.4-1.3l-0.4-1.2l-4.4,1.3L189.7,72.9z M144.7,17.3l2.2-4
		l-1.1-0.6l-2.2,4L144.7,17.3z M55.3,181.7l-2.2,4l1.1,0.6l2.2-4L55.3,181.7z M17.8,54.8l-4-2.2l-0.6,1.1l4,2.2L17.8,54.8z
		 M182.2,144.2l4,2.2l0.6-1.1l-4-2.2L182.2,144.2z M41.1,26.8l-2.9-3.5l-1,0.8l2.9,3.5L41.1,26.8z M158.9,172.2l2.9,3.5l1-0.8
		l-2.9-3.5L158.9,172.2z M27.3,158.4l-3.5,2.9l0.8,1l3.5-2.9L27.3,158.4z M172.7,40.6l3.5-2.9l-0.8-1l-3.5,2.9L172.7,40.6z
		 M108.5,6.3l1.3,0.1l0.4-4.5L109,1.8L108.5,6.3z M89.8,197.1l1.3,0.1l0.4-4.5l-1.3-0.1L89.8,197.1z M7,89.7l-4.5-0.4l-0.1,1.3
		L6.8,91L7,89.7z M193,109.3l4.5,0.4l0.1-1.3l-4.5-0.4L193,109.3z M96,6l-0.2-4.6l-1.3,0.1l0.2,4.6L96,6z M104,193l0.2,4.6l1.3-0.1
		l-0.2-4.6L104,193z M6.5,103.5L2,103.7l0.1,1.3l4.6-0.2L6.5,103.5z M193.5,95.5l4.6-0.2l-0.1-1.3l-4.6,0.2L193.5,95.5z M163.3,30.6
		l3.1-3.4l-0.9-0.9l-3.1,3.4L163.3,30.6z M36.7,168.4l-3.1,3.4l0.9,0.8l3.1-3.4L36.7,168.4z M31.1,36.2l-3.4-3.1l-0.9,0.9l3.4,3.1
		L31.1,36.2z M168.9,162.8l3.4,3.1l0.9-0.9l-3.4-3.1L168.9,162.8z M60.6,14.7l-2-4.1l-1.1,0.5l2,4.1L60.6,14.7z M139.4,184.3l2,4.1
		l1.1-0.5l-2-4.1L139.4,184.3z M15.2,138.9l-4.1,2l0.5,1.1l4.1-2L15.2,138.9z M184.8,60.1l4.1-2l-0.5-1.1l-4.1,2L184.8,60.1z
		 M132.1,11.6l1.5-4.3l-1.2-0.4l-1.5,4.3L132.1,11.6z M67.9,187.4l-1.5,4.3l1.2,0.4l1.5-4.3L67.9,187.4z M12.1,67.4l-4.3-1.5L7.4,67
		l4.3,1.5L12.1,67.4z M187.9,131.6l4.3,1.5l0.4-1.2l-4.3-1.5L187.9,131.6z M75.5,4.5l1.1,4.4l1.2-0.3l-1.1-4.4L75.5,4.5z
		 M122.1,190.4l1.1,4.4l1.2-0.3l-1.1-4.4L122.1,190.4z M9.1,121.6l-4.4,1.1L5,124l4.4-1.1L9.1,121.6z M190.9,77.4l4.4-1.1L195,75
		l-4.4,1.1L190.9,77.4z M148.6,19.6l2.3-3.9l-1.1-0.7l-2.3,3.9L148.6,19.6z M51.4,179.4l-2.3,3.9l1.1,0.7l2.3-3.9L51.4,179.4z
		 M20.1,50.9l-3.9-2.3l-0.7,1.1l3.9,2.3L20.1,50.9z M179.9,148.1l3.9,2.3l0.6-1.1l-3.9-2.3L179.9,148.1z M44.8,24l-2.7-3.7l-1,0.8
		l2.7,3.7L44.8,24z M155.2,175l2.7,3.7l1-0.8l-2.7-3.7L155.2,175z M24.5,154.7l-3.7,2.7l0.8,1l3.7-2.7L24.5,154.7z M175.5,44.3
		l3.7-2.7l-0.8-1l-3.7,2.7L175.5,44.3z M113.1,6.9l1.3,0.2l0.7-4.5l-1.3-0.2L113.1,6.9z M85,196.5l1.3,0.2l0.7-4.5l-1.3-0.2
		L85,196.5z M7.6,85.1L3,84.5l-0.2,1.3l4.5,0.7L7.6,85.1z M192.4,113.9l4.5,0.7l0.2-1.3l-4.5-0.7L192.4,113.9z M86.9,6.9l-0.7-4.5
		L85,2.5l0.7,4.5L86.9,6.9z M113.1,192.1l0.7,4.5l1.3-0.2l-0.7-4.5L113.1,192.1z M7.4,112.6l-4.5,0.7l0.2,1.3l4.5-0.7L7.4,112.6z
		 M192.6,86.4l4.5-0.7l-0.2-1.3l-4.5,0.7L192.6,86.4z M156.2,24.7l2.7-3.7l-1-0.8l-2.7,3.7L156.2,24.7z M43.8,174.3l-2.7,3.7l1,0.8
		l2.7-3.7L43.8,174.3z M25.2,43.3l-3.7-2.7l-0.8,1l3.7,2.7L25.2,43.3z M174.8,155.7l3.7,2.7l0.7-1l-3.7-2.7L174.8,155.7z M52.5,18.9
		L50.1,15L49,15.7l2.3,3.9L52.5,18.9z M147.6,180.1l2.3,3.9l1.1-0.7l-2.3-3.9L147.6,180.1z M19.4,147l-3.9,2.3l0.7,1.1l3.9-2.3
		L19.4,147z M180.6,51.9l3.9-2.3l-0.6-1.1l-3.9,2.3L180.6,51.9z M123.3,8.9l1.1-4.4l-1.2-0.3l-1.1,4.4L123.3,8.9z M75.5,194.5
		l1.2,0.3l1.1-4.4l-1.2-0.3L75.5,194.5z M9.4,76.2L5,75l-0.3,1.2l4.4,1.1L9.4,76.2z M190.6,122.8l4.4,1.1l0.3-1.2l-4.4-1.1
		L190.6,122.8z M69.1,11.2l-1.5-4.3l-1.2,0.4l1.5,4.3L69.1,11.2z M130.9,187.8l1.5,4.3l1.2-0.4l-1.5-4.3L130.9,187.8z M11.7,130.4
		L7.4,132l0.4,1.2l4.3-1.5L11.7,130.4z M188.3,68.6l4.3-1.5l-0.4-1.2l-4.3,1.5L188.3,68.6z M140.6,15.2l1.9-4.1l-1.1-0.5l-2,4.1
		L140.6,15.2z M59.4,183.8l-2,4.1l1.1,0.5l2-4.1L59.4,183.8z M15.7,58.9l-4.1-2L11,58.1l4.1,2L15.7,58.9z M184.3,140.1l4.1,2
		l0.5-1.2l-4.1-1.9L184.3,140.1z M37.6,29.8l-3.1-3.4l-0.9,0.9l3.1,3.4L37.6,29.8z M162.4,169.2l3.1,3.4l0.9-0.8l-3.1-3.4
		L162.4,169.2z M30.3,161.9l-3.4,3.1l0.9,0.9l3.4-3.1L30.3,161.9z M169.7,37.1l3.4-3.1l-0.9-0.9l-3.4,3.1L169.7,37.1z M104,6
		l1.3,0.1l0.2-4.6l-1.3-0.1L104,6z M94.6,197.5l1.3,0.1L96,193l-1.3-0.1L94.6,197.5z M6.6,94.3L2,94.1L2,95.3l4.6,0.2L6.6,94.3z
		 M193.4,104.7l4.6,0.2l0.1-1.3l-4.6-0.2L193.4,104.7z M98.3,6l-0.1-4.6l-1.3,0L97.1,6L98.3,6z M101.7,193l0.1,4.6l1.3,0l-0.1-4.6
		L101.7,193z M6.5,101.2l-4.6,0.1l0,1.3l4.6-0.1L6.5,101.2z M193.5,97.8l4.6-0.1l0-1.3l-4.6,0.1L193.5,97.8z M165,32.2l3.1-3.3
		l-0.9-0.9l-3.1,3.3L165,32.2z M35,166.8l-3.1,3.3l0.9,0.9l3.1-3.3L35,166.8z M32.7,34.5l-3.3-3.1l-0.9,0.9l3.3,3.1L32.7,34.5z
		 M167.3,164.5l3.3,3.1l0.9-0.9l-3.3-3.1L167.3,164.5z M62.7,13.7l-1.8-4.2l-1.2,0.5l1.9,4.2L62.7,13.7z M137.3,185.3l1.9,4.2
		l1.2-0.5l-1.8-4.2L137.3,185.3z M14.2,136.8l-4.2,1.9l0.5,1.2l4.2-1.8L14.2,136.8z M185.8,62.2l4.2-1.9l-0.5-1.2l-4.2,1.9
		L185.8,62.2z M134.3,12.4l1.6-4.3l-1.2-0.5l-1.6,4.3L134.3,12.4z M65.7,186.5l-1.6,4.3l1.2,0.5l1.6-4.3L65.7,186.5z M13,65.2
		l-4.3-1.6l-0.5,1.2l4.3,1.6L13,65.2z M187.1,133.8l4.3,1.6l0.5-1.2l-4.3-1.6L187.1,133.8z M80.1,8.1l-1-4.5l-1.2,0.3l1,4.5
		L80.1,8.1z M119.9,190.9l1,4.4l1.2-0.3l-1-4.5L119.9,190.9z M8.6,119.4l-4.5,1l0.3,1.2l4.5-1L8.6,119.4z M191.4,79.6l4.5-1
		l-0.3-1.2l-4.5,1L191.4,79.6z M150.6,20.8l2.4-3.9l-1.1-0.7l-2.4,3.9L150.6,20.8z M49.4,178.2L47,182l1.1,0.7l2.4-3.9L49.4,178.2z
		 M21.3,48.9l-3.9-2.4l-0.7,1.1l3.9,2.4L21.3,48.9z M178.7,150.1l3.9,2.4l0.7-1.1l-3.9-2.4L178.7,150.1z M46.7,22.7L44,18.9l-1,0.7
		l2.6,3.7L46.7,22.7z M153.3,176.3l2.6,3.7l1-0.7l-2.6-3.7L153.3,176.3z M23.2,152.8l-3.7,2.6l0.7,1l3.7-2.6L23.2,152.8z
		 M176.9,46.2l3.7-2.6l-0.7-1l-3.7,2.6L176.9,46.2z M117.4,2.9l-1.2-0.2l-0.8,4.5l1.3,0.2L117.4,2.9z M82.6,196.1l1.2,0.2l0.8-4.5
		l-1.2-0.2L82.6,196.1z M7.9,82.9l-4.5-0.8l-0.2,1.2l4.5,0.8L7.9,82.9z M192.1,116.1l4.5,0.8l0.2-1.3l-4.5-0.8L192.1,116.1z
		 M89.2,6.6l-0.6-4.5l-1.3,0.1l0.6,4.5L89.2,6.6z M110.8,192.4l0.6,4.5l1.3-0.2l-0.6-4.5L110.8,192.4z M7.1,110.3l-4.5,0.6l0.2,1.3
		l4.5-0.6L7.1,110.3z M192.9,88.7l4.5-0.6l-0.2-1.3l-4.5,0.6L192.9,88.7z M158.1,26.1l2.8-3.6l-1-0.8l-2.8,3.6L158.1,26.1z
		 M42,172.9l-2.8,3.6l1,0.8l2.8-3.6L42,172.9z M26.6,41.4L23,38.6l-0.8,1l3.6,2.8L26.6,41.4z M173.4,157.6l3.6,2.8l0.8-1l-3.6-2.8
		L173.4,157.6z M54.4,17.8l-2.2-4l-1.1,0.6l2.2,4L54.4,17.8z M145.6,181.2l2.2,4l1.1-0.6l-2.3-4L145.6,181.2z M18.3,145.1l-4,2.2
		l0.6,1.1l4-2.3L18.3,145.1z M181.7,53.9l4-2.3l-0.6-1.1l-4,2.2L181.7,53.9z M125.6,9.5l1.2-4.4l-1.2-0.3l-1.2,4.4L125.6,9.5z
		 M74.4,189.5l-1.2,4.4l1.2,0.3l1.2-4.4L74.4,189.5z M10,73.9l-4.4-1.2l-0.3,1.2l4.4,1.2L10,73.9z M190,125.1l4.4,1.2l0.3-1.2
		l-4.4-1.2L190,125.1z M71.3,10.5l-1.4-4.3l-1.2,0.4l1.4,4.3L71.3,10.5z M128.7,188.5l1.4,4.3l1.2-0.4l-1.4-4.3L128.7,188.5z
		 M11,128.2l-4.3,1.4l0.4,1.2l4.3-1.4L11,128.2z M189,70.8l4.3-1.4l-0.4-1.2l-4.3,1.4L189,70.8z M142.6,16.2l2.1-4.1l-1.1-0.6
		l-2.1,4.1L142.6,16.2z M57.4,182.8l-2.1,4.1l1.1,0.6l2.1-4.1L57.4,182.8z M16.7,56.9l-4.1-2.1L12.1,56l4.1,2.1L16.7,56.9z
		 M183.3,142.1l4.1,2.1l0.6-1.1l-4.1-2L183.3,142.1z M39.4,28.2l-3-3.5l-1,0.8l3,3.5L39.4,28.2z M160.6,170.8l3,3.4l1-0.8l-3-3.5
		L160.6,170.8z M28.8,160.1l-3.5,3l0.8,1l3.5-3L28.8,160.1z M171.2,38.9l3.5-3l-0.8-1l-3.5,3L171.2,38.9z M107.9,1.7l-1.3-0.1
		l-0.3,4.5l1.3,0.1L107.9,1.7z M92.2,197.3l1.3,0.1l0.3-4.6l-1.3-0.1L92.2,197.3z M6.8,92l-4.6-0.3l-0.1,1.3l4.6,0.3L6.8,92z
		 M193.2,107l4.6,0.3l0.1-1.3l-4.5-0.3L193.2,107z M93.8,6.2l-0.3-4.5l-1.3,0.1l0.3,4.6L93.8,6.2z M106.2,192.8l0.3,4.5l1.3-0.1
		l-0.3-4.6L106.2,192.8z M6.7,105.7l-4.6,0.3l0.1,1.3l4.6-0.3L6.7,105.7z M193.3,93.2l4.5-0.3l-0.1-1.3l-4.6,0.3L193.3,93.2z
		 M161.6,29.1l3-3.5l-1-0.8l-3,3.5L161.6,29.1z M38.4,169.9l-3,3.5l1,0.8l3-3.4L38.4,169.9z M29.6,37.9l-3.5-3l-0.8,1l3.5,3
		L29.6,37.9z M170.4,161.1l3.5,3l0.8-1l-3.5-3L170.4,161.1z M58.5,15.7l-2.1-4.1l-1.1,0.6l2.1,4.1L58.5,15.7z M141.5,183.3l2,4.1
		l1.1-0.6l-2.1-4.1L141.5,183.3z M16.2,141l-4.1,2.1l0.6,1.1l4.1-2.1L16.2,141z M183.8,58l4.1-2.1l-0.6-1.1l-4.1,2.1L183.8,58z
		 M129.9,10.9l1.4-4.3l-1.2-0.4l-1.4,4.3L129.9,10.9z M70.1,188.1l-1.4,4.3l1.2,0.4l1.4-4.3L70.1,188.1z M11.4,69.6L7,68.1l-0.4,1.2
		l4.3,1.4L11.4,69.6z M188.6,129.4l4.3,1.4l0.4-1.2l-4.3-1.4L188.6,129.4z M75.7,9.2l-1.2-4.4l-1.2,0.3l1.2,4.4L75.7,9.2z
		 M124.3,189.8l1.2,4.4l1.2-0.3l-1.2-4.4L124.3,189.8z M9.7,123.8l-4.4,1.2l0.3,1.2l4.4-1.2L9.7,123.8z M190.3,75.2l4.4-1.2
		l-0.3-1.2l-4.4,1.2L190.3,75.2z M146.7,18.4l2.3-4l-1.1-0.6l-2.2,4L146.7,18.4z M53.3,180.6l-2.2,4l1.1,0.6l2.2-4L53.3,180.6z
		 M18.9,52.8l-4-2.2l-0.6,1.1l4,2.3L18.9,52.8z M181.1,146.2l4,2.3l0.6-1.1l-4-2.2L181.1,146.2z M42.9,25.4l-2.8-3.6l-1,0.8l2.8,3.6
		L42.9,25.4z M157.1,173.6l2.8,3.6l1-0.8l-2.8-3.6L157.1,173.6z M25.9,156.6l-3.6,2.8l0.8,1l3.6-2.8L25.9,156.6z M174.1,42.4
		l3.6-2.8l-0.8-1l-3.6,2.8L174.1,42.4z M110.8,6.6l1.3,0.2l0.6-4.5L111.4,2L110.8,6.6z M87.4,196.8l1.3,0.2l0.6-4.5l-1.3-0.2
		L87.4,196.8z M7.2,87.4l-4.5-0.6l-0.2,1.3l4.5,0.6L7.2,87.4z M192.8,111.6l4.5,0.6l0.2-1.3l-4.5-0.6L192.8,111.6z M84.6,7.2
		l-0.8-4.5l-1.2,0.2l0.8,4.5L84.6,7.2z M115.4,191.8l0.8,4.5l1.3-0.2l-0.8-4.5L115.4,191.8z M7.7,114.9l-4.5,0.8l0.2,1.3l4.5-0.8
		L7.7,114.9z M192.3,84.1l4.5-0.8l-0.2-1.2l-4.5,0.8L192.3,84.1z M154.4,23.4l2.6-3.7l-1-0.7l-2.6,3.7L154.4,23.4z M45.6,175.6
		l-2.6,3.7l1,0.7l2.6-3.7L45.6,175.6z M23.9,45.1l-3.7-2.6l-0.7,1l3.7,2.6L23.9,45.1z M176.1,153.9l3.7,2.6l0.7-1l-3.7-2.6
		L176.1,153.9z M50.5,20.1L48,16.3L47,16.9l2.4,3.9L50.5,20.1z M149.5,178.9l2.4,3.9l1.1-0.7l-2.4-3.9L149.5,178.9z M20.6,149
		l-3.9,2.4l0.7,1.1l3.9-2.4L20.6,149z M179.4,50l3.9-2.4l-0.7-1.1l-3.9,2.4L179.4,50z M122.1,3.9l-1.2-0.3l-1,4.5l1.2,0.3L122.1,3.9
		z M77.9,195.1l1.2,0.3l1-4.4l-1.2-0.3L77.9,195.1z M8.9,78.4l-4.5-1l-0.3,1.2l4.5,1L8.9,78.4z M191.1,120.6l4.5,1l0.3-1.2l-4.5-1
		L191.1,120.6z M66.9,12l-1.6-4.3l-1.2,0.5l1.6,4.3L66.9,12z M133.1,187l1.6,4.3l1.2-0.5l-1.6-4.3L133.1,187z M12.5,132.6l-4.3,1.6
		l0.5,1.2l4.3-1.6L12.5,132.6z M187.5,66.4l4.3-1.6l-0.5-1.2l-4.3,1.6L187.5,66.4z M138.5,14.2l1.9-4.2l-1.2-0.5l-1.9,4.2
		L138.5,14.2z M61.5,184.8l-1.9,4.2l1.2,0.5l1.8-4.2L61.5,184.8z M14.7,61l-4.2-1.9l-0.5,1.2l4.2,1.9L14.7,61z M185.3,138l4.2,1.8
		l0.5-1.2l-4.2-1.8L185.3,138z M36,31.3L32.8,28l-0.9,0.9l3.1,3.3L36,31.3z M164,167.7l3.2,3.3l0.9-0.9l-3.1-3.3L164,167.7z
		 M31.8,163.5l-3.3,3.1l0.9,0.9l3.3-3.1L31.8,163.5z M168.2,35.5l3.3-3.1l-0.9-0.9l-3.3,3.1L168.2,35.5z M103,1.4l-1.3,0L101.7,6
		l1.3,0L103,1.4z M97,197.6l1.3,0l0.1-4.6l-1.3,0L97,197.6z M6.5,96.6l-4.6-0.1l0,1.3l4.6,0.1L6.5,96.6z M193.5,102.4l4.6,0.1l0-1.3
		l-4.6-0.1L193.5,102.4z"/>
	<g>
		<path class="st1" d="M107.7,120.8V131h-32v-10.3h7.7V80.6h-7.7V70.3h32c7.4,0,13.2,1.7,17.3,5.2c4.1,3.5,6.1,8.2,6.1,14.1
			c0,3.4-0.7,6.4-2.1,9.2c-1.4,2.7-3.3,4.9-5.5,6.3c-2.2,1.5-4.8,2.5-7.6,3c-2.9,0.5-6.4,0.8-10.8,0.8h-5.8v11.8H107.7z M99.2,98.9
			h2.4c5.4,0,8.9-0.9,10.4-2.6c1.6-1.8,2.3-3.9,2.3-6.6c0-2.2-0.5-4.1-1.6-5.6c-1.1-1.6-2.3-2.5-3.7-2.9c-1.4-0.4-3.7-0.5-6.8-0.5
			h-3V98.9z"/>
	</g>
	<path class="st2" d="M98.3,38.9L57.1,56.6l-3.4-3.4C41.9,65.1,34.6,81.4,34.6,99.5c0,18.1,7.3,34.4,19.2,46.3l3.4-3.4l43.8,17.7
		l-2.3,4.8c0.4,0,0.9,0,1.3,0c36.1,0,65.4-29.3,65.4-65.4c0-28.8-18.7-53.3-44.6-62l0.3,6.3L98.3,38.9z"/>
	<path class="st1" d="M34.6,101c0-18.1,7.3-34.4,19.2-46.3l-10-10C29.4,59.1,20.5,79,20.5,101c0,22,8.9,41.8,23.3,56.2l10-10
		C41.9,135.4,34.6,119,34.6,101z"/>
	<path class="st1" d="M99.7,50.1h0.7v-6.3h-0.7V50.1z M99.7,155.2h0.7v-6.3h-0.7V155.2z M149.4,99.2v0.7h6.3v-0.7H149.4z M50.6,99.2
		h-6.3v0.7h6.3V99.2z M135.2,64.8l4.4-4.4l-0.5-0.5l-4.4,4.4L135.2,64.8z M64.8,134.2l-4.4,4.4l0.5,0.5l4.4-4.4L64.8,134.2z
		 M134.7,134.7l4.4,4.4l0.5-0.5l-4.4-4.4L134.7,134.7z M65.3,64.3l-4.4-4.4l-0.5,0.5l4.4,4.4L65.3,64.3z M81.4,53.7L79,47.9
		l-0.6,0.3l2.4,5.8L81.4,53.7z M118.6,145.3l2.4,5.8l0.6-0.3l-2.4-5.8L118.6,145.3z M145.8,80.9l5.8-2.4l-0.3-0.6l-5.8,2.4
		L145.8,80.9z M54.2,118.1l-5.8,2.4l0.3,0.6l5.8-2.4L54.2,118.1z M119.2,54l2.4-5.8l-0.6-0.3l-2.4,5.8L119.2,54z M80.8,145l-2.4,5.8
		l0.6,0.3l2.4-5.8L80.8,145z M145.5,118.7l5.8,2.4l0.3-0.6l-5.8-2.4L145.5,118.7z M54.5,80.3l-5.8-2.4l-0.3,0.6l5.8,2.4L54.5,80.3z
		 M88.8,44.9l1.2,6.1l0.7-0.1l-1.2-6.1L88.8,44.9z M109.3,148.1l1.2,6.1l0.7-0.1l-1.2-6.1L109.3,148.1z M148.6,90.2l6.1-1.2
		l-0.1-0.7l-6.1,1.2L148.6,90.2z M51.4,108.8l-6.1,1.2l0.1,0.7l6.1-1.2L51.4,108.8z M127.7,58.6l3.5-5.2l-0.6-0.4l-3.5,5.2
		L127.7,58.6z M72.3,140.4l-3.5,5.2l0.6,0.4l3.5-5.2L72.3,140.4z M140.9,127.2l5.2,3.5l0.4-0.6l-5.2-3.5L140.9,127.2z M59.1,71.8
		l-5.2-3.5l-0.4,0.6l5.2,3.5L59.1,71.8z M72.8,58.2L69.3,53l-0.6,0.4l3.5,5.2L72.8,58.2z M127.2,140.8l3.5,5.2l0.6-0.4l-3.5-5.2
		L127.2,140.8z M141.3,72.3l5.2-3.5l-0.4-0.6l-5.2,3.5L141.3,72.3z M58.7,126.7l-5.2,3.5l0.4,0.6l5.2-3.5L58.7,126.7z M109.3,50.9
		l0.7,0.1l1.2-6.1l-0.7-0.1L109.3,50.9z M88.8,154.1l0.7,0.1l1.2-6.1l-0.7-0.1L88.8,154.1z M148.4,109.5l6.1,1.2l0.1-0.7l-6.1-1.2
		L148.4,109.5z M51.6,89.5l-6.1-1.2L45.3,89l6.1,1.2L51.6,89.5z M94.2,44.1l0.6,6.2l0.7-0.1L94.9,44L94.2,44.1z M104.5,148.7
		l0.6,6.2l0.7-0.1l-0.6-6.2L104.5,148.7z M149.2,95l6.2-0.6l-0.1-0.7l-6.2,0.6L149.2,95z M50.8,104l-6.2,0.6l0.1,0.7l6.2-0.6
		L50.8,104z M131.6,61.5l4-4.8l-0.5-0.4l-4,4.8L131.6,61.5z M68.4,137.5l-4,4.8l0.5,0.4l4-4.8L68.4,137.5z M138,131.1l4.8,4l0.4-0.5
		l-4.8-4L138,131.1z M62,67.9l-4.8-4l-0.4,0.5l4.8,4L62,67.9z M77,55.7L74,50.2l-0.6,0.3l2.9,5.5L77,55.7z M123,143.3l2.9,5.5
		l0.6-0.3l-2.9-5.5L123,143.3z M143.8,76.5l5.5-2.9L149,73l-5.5,2.9L143.8,76.5z M56.2,122.5l-5.5,2.9L51,126l5.5-2.9L56.2,122.5z
		 M116.5,46.3l-0.6-0.2l-1.8,6l0.6,0.2L116.5,46.3z M83.5,152.7l0.6,0.2l1.8-6l-0.6-0.2L83.5,152.7z M147.2,114.2l6,1.8l0.2-0.6
		l-6-1.8L147.2,114.2z M52.8,84.8l-6-1.8l-0.2,0.6l6,1.8L52.8,84.8z M83.5,46.3l1.8,6l0.6-0.2l-1.8-6L83.5,46.3z M114,146.9l1.8,6
		l0.6-0.2l-1.8-6L114,146.9z M147.4,85.5l6-1.8l-0.2-0.6l-6,1.8L147.4,85.5z M52.6,113.5l-6,1.8l0.2,0.6l6-1.8L52.6,113.5z
		 M123.6,56.1l2.9-5.5l-0.6-0.3l-2.9,5.5L123.6,56.1z M76.4,142.9l-2.9,5.5l0.6,0.3l2.9-5.5L76.4,142.9z M143.4,123.1l5.5,2.9
		l0.3-0.6l-5.5-2.9L143.4,123.1z M56.6,75.9L51,73l-0.3,0.6l5.5,2.9L56.6,75.9z M68.9,61.1l-4-4.8l-0.5,0.4l4,4.8L68.9,61.1z
		 M131.1,137.9l4,4.8l0.5-0.4l-4-4.8L131.1,137.9z M138.4,68.4l4.8-4l-0.4-0.5l-4.8,4L138.4,68.4z M61.6,130.6l-4.8,4l0.4,0.5l4.8-4
		L61.6,130.6z M104.5,50.3l0.7,0.1l0.6-6.2l-0.7-0.1L104.5,50.3z M94.2,154.9l0.7,0.1l0.6-6.2l-0.7-0.1L94.2,154.9z M149.2,104.7
		l6.2,0.6l0.1-0.7l-6.2-0.6L149.2,104.7z M50.8,94.3l-6.2-0.6l-0.1,0.7l6.2,0.6L50.8,94.3z M96.9,43.9l0.3,6.2l0.7,0l-0.3-6.2
		L96.9,43.9z M102.1,148.9l0.3,6.2l0.7,0l-0.3-6.2L102.1,148.9z M149.4,97.4l6.2-0.3l0-0.7l-6.2,0.3L149.4,97.4z M50.6,101.6
		l-6.2,0.3l0,0.7l6.2-0.3L50.6,101.6z M133.4,63.1l4.2-4.6l-0.5-0.4l-4.2,4.6L133.4,63.1z M66.6,135.9l-4.2,4.6l0.5,0.4l4.2-4.6
		L66.6,135.9z M136.4,132.9l4.6,4.2l0.4-0.5l-4.6-4.2L136.4,132.9z M63.6,66.1L59,61.9l-0.5,0.5l4.6,4.2L63.6,66.1z M79.2,54.7
		L76.5,49l-0.6,0.3l2.7,5.7L79.2,54.7z M120.8,144.3l2.7,5.7l0.6-0.3l-2.7-5.7L120.8,144.3z M144.8,78.7l5.6-2.7l-0.3-0.6l-5.6,2.7
		L144.8,78.7z M55.2,120.3l-5.6,2.7l0.3,0.6l5.6-2.7L55.2,120.3z M117,53.1l2.1-5.9l-0.6-0.2l-2.1,5.9L117,53.1z M83,145.9l-2.1,5.9
		l0.6,0.2l2.1-5.9L83,145.9z M146.4,116.5l5.9,2.1l0.2-0.6l-5.9-2.1L146.4,116.5z M53.6,82.5l-5.9-2.1l-0.2,0.6l5.9,2.1L53.6,82.5z
		 M86.1,45.6l1.5,6.1l0.6-0.2l-1.5-6.1L86.1,45.6z M111.7,147.5l1.5,6.1l0.6-0.2l-1.5-6.1L111.7,147.5z M148,87.8l6.1-1.5l-0.2-0.6
		l-6.1,1.5L148,87.8z M52,111.2l-6.1,1.5l0.2,0.6l6.1-1.5L52,111.2z M125.7,57.3l3.2-5.4l-0.6-0.3l-3.2,5.4L125.7,57.3z M74.3,141.7
		l-3.2,5.4l0.6,0.3l3.2-5.4L74.3,141.7z M142.2,125.2l5.4,3.2l0.3-0.6l-5.4-3.2L142.2,125.2z M57.8,73.8l-5.4-3.2l-0.3,0.6l5.4,3.2
		L57.8,73.8z M70.8,59.6l-3.7-5L66.6,55l3.7,5L70.8,59.6z M129.2,139.4l3.7,5l0.5-0.4l-3.7-5L129.2,139.4z M139.9,70.3l5-3.7
		l-0.4-0.5l-5,3.7L139.9,70.3z M60.1,128.7l-5,3.7l0.4,0.5l5-3.7L60.1,128.7z M106.9,50.5l0.7,0.1l0.9-6.2l-0.7-0.1L106.9,50.5z
		 M91.5,154.5l0.7,0.1l0.9-6.2l-0.7-0.1L91.5,154.5z M148.9,107.1l6.2,0.9l0.1-0.7l-6.2-0.9L148.9,107.1z M51.1,91.9L45,91l-0.1,0.7
		l6.2,0.9L51.1,91.9z M91.5,44.5l0.9,6.2l0.7-0.1l-0.9-6.2L91.5,44.5z M106.9,148.4l0.9,6.2l0.7-0.1l-0.9-6.2L106.9,148.4z
		 M149,92.6l6.2-0.9L155,91l-6.2,0.9L149,92.6z M51,106.4l-6.2,0.9L45,108l6.2-0.9L51,106.4z M129.7,60l3.7-5l-0.5-0.4l-3.7,5
		L129.7,60z M70.3,139l-3.7,5l0.5,0.4l3.7-5L70.3,139z M139.5,129.2l5,3.7l0.4-0.5l-5-3.7L139.5,129.2z M60.5,69.8l-5-3.7l-0.4,0.5
		l5,3.7L60.5,69.8z M74.9,56.9l-3.2-5.4l-0.6,0.3l3.2,5.4L74.9,56.9z M125.1,142.1l3.2,5.4l0.6-0.3l-3.2-5.4L125.1,142.1z
		 M142.6,74.4l5.4-3.2l-0.3-0.6l-5.4,3.2L142.6,74.4z M57.4,124.6l-5.4,3.2l0.3,0.6l5.4-3.2L57.4,124.6z M111.7,51.5l0.7,0.2
		l1.5-6.1l-0.7-0.2L111.7,51.5z M86.1,153.4l0.7,0.2l1.5-6.1l-0.6-0.2L86.1,153.4z M147.9,111.8l6.1,1.5l0.2-0.7l-6.1-1.5
		L147.9,111.8z M52.1,87.2l-6.1-1.5l-0.2,0.6l6.1,1.5L52.1,87.2z M83.7,52.8L81.6,47l-0.6,0.2l2.1,5.9L83.7,52.8z M116.3,146.2
		l2.1,5.9l0.6-0.2l-2.1-5.9L116.3,146.2z M146.7,83.2l5.9-2.1l-0.2-0.6l-5.9,2.1L146.7,83.2z M53.3,115.8l-5.9,2.1l0.2,0.6l5.9-2.1
		L53.3,115.8z M121.4,54.9l2.7-5.6l-0.6-0.3l-2.7,5.6L121.4,54.9z M78.6,144l-2.7,5.7l0.6,0.3l2.7-5.7L78.6,144z M144.5,120.9
		l5.7,2.7l0.3-0.6l-5.7-2.7L144.5,120.9z M55.5,78.1l-5.7-2.7L49.5,76l5.7,2.7L55.5,78.1z M67,62.6L62.8,58l-0.5,0.4l4.2,4.6
		L67,62.6z M133,136.4l4.2,4.6l0.5-0.4l-4.2-4.6L133,136.4z M136.9,66.5l4.6-4.2l-0.5-0.5l-4.6,4.2L136.9,66.5z M63.1,132.5
		l-4.6,4.2l0.5,0.5l4.6-4.2L63.1,132.5z M102.1,50.1l0.7,0l0.3-6.2l-0.7,0L102.1,50.1z M96.9,155.1l0.7,0l0.3-6.2l-0.7,0L96.9,155.1
		z M149.4,102.3l6.2,0.3l0-0.7l-6.2-0.3L149.4,102.3z M50.6,96.7l-6.2-0.3l0,0.7l6.2,0.3L50.6,96.7z"/>
	<path class="st1" d="M164.9,101c0,18.1-7.3,34.4-19.2,46.3l10,10c14.4-14.4,23.3-34.3,23.3-56.2c0-22-8.9-41.8-23.3-56.2l-10,10
		C157.6,66.5,164.9,82.9,164.9,101z"/>
	<g>
		<path class="st1" d="M58.4,31.1l6.4-3.2c0.9-0.4,1.7-0.7,2.5-0.7c0.7-0.1,1.4,0,2,0.3c0.6,0.2,1.1,0.6,1.6,1
			c0.5,0.5,0.8,1,1.1,1.5c0.3,0.6,0.5,1.2,0.6,1.8c0.1,0.6,0.1,1.3-0.1,1.9c-0.2,0.6-0.5,1.2-1,1.8c-0.5,0.6-1.2,1.1-2.1,1.5
			l-3.3,1.6l2.5,5.1l-3.1,1.6L58.4,31.1z M64.9,36.2l2.4-1.2c0.4-0.2,0.7-0.4,1-0.6c0.3-0.2,0.5-0.5,0.7-0.7
			c0.2-0.3,0.3-0.6,0.3-0.9c0-0.4-0.1-0.8-0.3-1.2c-0.2-0.4-0.5-0.8-0.8-1c-0.3-0.2-0.6-0.3-0.9-0.3c-0.3,0-0.7,0-1,0.1
			c-0.4,0.1-0.7,0.3-1.1,0.4L62.7,32L64.9,36.2z"/>
		<path class="st1" d="M86.2,31.2l0.1,0l5.3,4.8l-3.8,0.9l-5.2-4.6L81,32.6l1.3,5.5l-3.4,0.8l-3.6-15.4l6.9-1.6
			c1-0.2,1.8-0.3,2.6-0.2c0.7,0.1,1.4,0.4,1.9,0.7c0.5,0.4,1,0.8,1.3,1.4c0.3,0.6,0.6,1.1,0.7,1.8c0.1,0.5,0.2,1,0.1,1.6
			c0,0.5-0.1,1.1-0.3,1.6c-0.2,0.5-0.5,1-0.9,1.4C87.3,30.6,86.8,30.9,86.2,31.2z M81.9,24.8l-2.6,0.6l1.1,4.6l2.6-0.6
			c0.4-0.1,0.8-0.2,1.1-0.4c0.3-0.1,0.6-0.3,0.9-0.6c0.2-0.2,0.4-0.5,0.5-0.9c0.1-0.3,0.1-0.8,0-1.2c-0.1-0.5-0.3-0.9-0.5-1.2
			c-0.2-0.3-0.5-0.4-0.8-0.6c-0.3-0.1-0.6-0.1-1-0.1C82.7,24.6,82.3,24.7,81.9,24.8z"/>
		<path class="st1" d="M97.5,32.8l8.9,0.1l0,2.9l-12.3-0.2l0.3-15.9l11.5,0.2l0,2.9l-8.2-0.1l-0.1,3.6l7.2,0.1l0,3.1l-7.2-0.1
			L97.5,32.8z"/>
		<path class="st1" d="M112.4,31.5c-0.1,0.5-0.1,1,0,1.4c0.1,0.4,0.3,0.8,0.5,1c0.3,0.3,0.6,0.5,1,0.7c0.4,0.2,0.8,0.4,1.3,0.5
			c0.3,0.1,0.6,0.1,1,0.1c0.4,0,0.7,0,1-0.1c0.3-0.1,0.6-0.2,0.9-0.4c0.3-0.2,0.4-0.5,0.5-0.9c0.1-0.4,0-0.8-0.2-1.1
			c-0.2-0.3-0.5-0.6-0.9-0.9c-0.4-0.3-0.8-0.5-1.4-0.8c-0.5-0.2-1-0.5-1.6-0.8c-0.5-0.3-1.1-0.6-1.6-0.9c-0.5-0.3-0.9-0.7-1.3-1.1
			c-0.4-0.4-0.6-0.9-0.8-1.5c-0.2-0.5-0.2-1.2,0-1.9c0.2-0.8,0.5-1.4,1-1.9c0.5-0.5,1-0.9,1.7-1.2c0.6-0.3,1.3-0.4,2.1-0.4
			c0.7,0,1.4,0,2.1,0.2c0.8,0.2,1.6,0.4,2.3,0.8c0.7,0.3,1.3,0.8,1.8,1.3c0.5,0.5,0.8,1.2,1,1.9c0.2,0.7,0.2,1.5,0,2.4l-3.3-0.7
			c0.1-0.5,0.1-0.9,0-1.2c-0.1-0.3-0.3-0.6-0.5-0.9c-0.2-0.2-0.5-0.4-0.9-0.6c-0.3-0.2-0.7-0.3-1.1-0.4c-0.3-0.1-0.6-0.1-0.8-0.1
			c-0.3,0-0.6,0-0.8,0.1c-0.3,0.1-0.5,0.2-0.7,0.4c-0.2,0.2-0.3,0.4-0.4,0.8c-0.1,0.3-0.1,0.6,0,0.8c0.1,0.2,0.3,0.4,0.6,0.7
			c0.3,0.2,0.7,0.5,1.3,0.8s1.3,0.7,2.2,1.1c0.2,0.1,0.4,0.2,0.7,0.3c0.3,0.1,0.6,0.3,0.9,0.5c0.3,0.2,0.6,0.5,0.9,0.8
			c0.3,0.3,0.5,0.6,0.7,1c0.2,0.4,0.4,0.8,0.4,1.3c0.1,0.5,0,1-0.1,1.6c-0.2,0.7-0.4,1.3-0.9,1.9c-0.4,0.5-0.9,1-1.6,1.3
			c-0.6,0.3-1.4,0.5-2.2,0.6c-0.9,0.1-1.8,0-2.9-0.2c-0.8-0.2-1.6-0.5-2.4-0.9c-0.8-0.4-1.4-0.9-1.9-1.5c-0.5-0.6-0.9-1.3-1.1-2
			c-0.2-0.8-0.2-1.6,0-2.6L112.4,31.5z"/>
		<path class="st1" d="M127.3,35.9c-0.2,0.5-0.3,0.9-0.3,1.3c0,0.4,0.1,0.8,0.3,1.1c0.2,0.3,0.4,0.7,0.8,0.9
			c0.3,0.3,0.7,0.5,1.1,0.7c0.3,0.1,0.6,0.3,0.9,0.4c0.3,0.1,0.7,0.2,1,0.2c0.3,0,0.7-0.1,1-0.2c0.3-0.1,0.5-0.4,0.7-0.8
			c0.2-0.4,0.2-0.8,0.1-1.1c-0.1-0.4-0.4-0.7-0.7-1.1c-0.3-0.4-0.7-0.7-1.2-1.1c-0.5-0.4-0.9-0.7-1.4-1.1c-0.5-0.4-0.9-0.8-1.3-1.2
			c-0.4-0.4-0.7-0.9-1-1.4c-0.3-0.5-0.4-1-0.4-1.6c0-0.6,0.1-1.2,0.4-1.9c0.3-0.7,0.8-1.3,1.4-1.7c0.6-0.4,1.2-0.6,1.9-0.8
			c0.7-0.1,1.4-0.1,2.1,0c0.7,0.1,1.4,0.3,2,0.7c0.7,0.4,1.4,0.8,2,1.3c0.6,0.5,1.1,1.1,1.4,1.7c0.4,0.6,0.6,1.3,0.6,2
			c0,0.7-0.1,1.5-0.5,2.3l-3-1.4c0.2-0.4,0.3-0.8,0.2-1.2c0-0.4-0.1-0.7-0.3-1c-0.2-0.3-0.4-0.5-0.7-0.8c-0.3-0.2-0.6-0.4-1-0.6
			c-0.3-0.1-0.5-0.2-0.8-0.3c-0.3-0.1-0.6-0.1-0.8,0c-0.3,0-0.5,0.1-0.8,0.3c-0.2,0.1-0.4,0.4-0.6,0.7c-0.1,0.3-0.2,0.5-0.2,0.8
			c0,0.2,0.2,0.5,0.4,0.8c0.2,0.3,0.6,0.6,1.1,1.1c0.5,0.4,1.1,0.9,1.9,1.6c0.2,0.1,0.4,0.3,0.6,0.5c0.2,0.2,0.5,0.4,0.7,0.7
			c0.3,0.3,0.5,0.6,0.7,0.9c0.2,0.3,0.4,0.7,0.5,1.1c0.1,0.4,0.2,0.9,0.1,1.3c0,0.5-0.2,1-0.4,1.5c-0.3,0.7-0.7,1.2-1.2,1.6
			c-0.5,0.4-1.1,0.7-1.8,0.9c-0.7,0.2-1.5,0.2-2.3,0.1c-0.9-0.1-1.8-0.4-2.7-0.9c-0.8-0.4-1.5-0.8-2.1-1.4c-0.6-0.6-1.2-1.2-1.5-1.8
			c-0.4-0.7-0.6-1.4-0.6-2.2c0-0.8,0.2-1.6,0.6-2.5L127.3,35.9z"/>
	</g>
	<g>
		<path class="st1" d="M62.7,163.7l-3.1,5.8l-2.9-1.5l7.2-13.7l2.9,1.5l-2.6,5l6.4,3.3l2.6-4.9l3,1.6l-7.2,13.7l-3-1.6L69,167
			L62.7,163.7z"/>
		<path class="st1" d="M92.8,172.6c-0.2,1.1-0.6,2.1-1.3,2.9c-0.6,0.9-1.3,1.6-2.2,2.1c-0.9,0.6-1.8,1-2.8,1.2c-1,0.2-2.1,0.2-3.2,0
			c-1.1-0.2-2.1-0.6-2.9-1.2c-0.9-0.6-1.6-1.3-2.1-2.2c-0.6-0.9-0.9-1.8-1.2-2.8c-0.2-1-0.2-2.1,0-3.2c0.2-1.1,0.6-2.1,1.2-2.9
			c0.6-0.9,1.3-1.6,2.2-2.1c0.9-0.6,1.8-0.9,2.8-1.2c1-0.2,2.1-0.2,3.2,0c1.1,0.2,2,0.6,2.9,1.2c0.9,0.6,1.6,1.3,2.1,2.2
			c0.6,0.9,1,1.8,1.2,2.8C93,170.4,93,171.5,92.8,172.6z M85.9,166.3c-0.6-0.1-1.3-0.1-1.9,0c-0.6,0.1-1.2,0.4-1.7,0.7
			c-0.5,0.3-0.9,0.8-1.3,1.3c-0.4,0.5-0.6,1.1-0.7,1.7c-0.1,0.6-0.1,1.3,0,1.9c0.1,0.6,0.4,1.2,0.7,1.7c0.3,0.5,0.8,0.9,1.3,1.3
			c0.5,0.4,1.1,0.6,1.7,0.7c0.6,0.1,1.3,0.1,1.9,0c0.6-0.1,1.2-0.4,1.7-0.7c0.5-0.3,0.9-0.8,1.3-1.3c0.4-0.5,0.6-1.1,0.7-1.7
			c0.1-0.6,0.1-1.3,0-1.9c-0.1-0.6-0.4-1.2-0.7-1.7c-0.3-0.5-0.7-0.9-1.2-1.3C87.1,166.7,86.5,166.4,85.9,166.3z"/>
		<path class="st1" d="M99.9,167.6l-4.9,0.2l-0.1-2.9l13.2-0.4l0.1,2.9l-4.9,0.1l0.4,12.6l-3.4,0.1L99.9,167.6z"/>
		<path class="st1" d="M117.7,175.2l8.4-2.4l0.8,2.8l-11.6,3.3l-4.2-14.9l10.9-3.1l0.8,2.8l-7.7,2.2l0.9,3.4l6.8-1.9l0.8,2.9
			l-6.8,1.9L117.7,175.2z"/>
		<path class="st1" d="M126,159.2l2.9-1.6l6.1,11l6.9-3.9l1.4,2.5l-9.8,5.5L126,159.2z"/>
	</g>
</g>
</svg>
